<?xml version="1.0" standalone="no"?><!DOCTYPE svg PUBLIC "-//W3C//DTD SVG 1.1//EN" "http://www.w3.org/Graphics/SVG/1.1/DTD/svg11.dtd"><svg t="1682140387998" class="icon" viewBox="0 0 1024 1024" version="1.1" xmlns="http://www.w3.org/2000/svg" p-id="7198" xmlns:xlink="http://www.w3.org/1999/xlink" width="200" height="200"><path d="M923.42 32H100.58A68.58 68.58 0 0 0 32 100.58v822.84A68.58 68.58 0 0 0 100.58 992h822.84A68.58 68.58 0 0 0 992 923.42V100.58A68.58 68.58 0 0 0 923.42 32z m-137.14 754.28h-19.02a136 136 0 0 1-236.24 0H237.72a68.58 68.58 0 1 1 0-137.14h293.3a136 136 0 0 1 236.24 0h19.02a68.58 68.58 0 1 1 0 137.14z m0-411.42H492.98a136 136 0 0 1-236.24 0h-19.02a68.58 68.58 0 1 1 0-137.14h19.02a136 136 0 0 1 236.24 0h293.3a68.58 68.58 0 1 1 0 137.14z" fill="#8a8a8a" p-id="7199"></path></svg>