<?xml version="1.0" standalone="no"?><!DOCTYPE svg PUBLIC "-//W3C//DTD SVG 1.1//EN" "http://www.w3.org/Graphics/SVG/1.1/DTD/svg11.dtd"><svg t="1682142202064" class="icon" viewBox="0 0 1024 1024" version="1.1" xmlns="http://www.w3.org/2000/svg" p-id="7489" xmlns:xlink="http://www.w3.org/1999/xlink" width="200" height="200"><path d="M211.2 663.466667c-17.066667-17.066667-17.066667-42.666667 0-59.733334l61.866667-61.866666c8.533333-8.533333 19.2-12.8 29.866666-12.8h55.466667c10.666667 0 21.333333-4.266667 29.866667-12.8l125.866666-125.866667c8.533333-8.533333 12.8-19.2 12.8-29.866667v-55.466666c0-10.666667 4.266667-21.333333 12.8-29.866667l61.866667-61.866667c17.066667-17.066667 42.666667-17.066667 59.733333 0l151.466667 151.466667c17.066667 17.066667 17.066667 42.666667 0 59.733333l-61.866667 61.866667c-8.533333 8.533333-19.2 12.8-29.866666 12.8h-55.466667c-10.666667 0-21.333333 4.266667-29.866667 12.8l-125.866666 125.866667c-8.533333 8.533333-12.8 19.2-12.8 29.866666v55.466667c0 10.666667-4.266667 21.333333-12.8 29.866667l-61.866667 61.866666c-17.066667 17.066667-42.666667 17.066667-59.733333 0l-151.466667-151.466666z" fill="#333333" p-id="7490"></path><path d="M390.4 846.933333c-17.066667 0-34.133333-6.4-44.8-19.2l-151.466667-151.466666c-25.6-25.6-25.6-66.133333 0-89.6l64-61.866667c12.8-12.8 27.733333-19.2 44.8-19.2h55.466667c6.4 0 10.666667-2.133333 14.933333-6.4l125.866667-125.866667c4.266667-4.266667 6.4-8.533333 6.4-14.933333v-55.466667c0-17.066667 6.4-34.133333 19.2-44.8l61.866667-61.866666c23.466667-23.466667 66.133333-23.466667 89.6 0l151.466666 151.466666c25.6 25.6 25.6 66.133333 0 89.6l-61.866666 61.866667c-12.8 12.8-27.733333 19.2-44.8 19.2h-55.466667c-6.4 0-10.666667 2.133333-14.933333 6.4l-125.866667 125.866667c-4.266667 4.266667-6.4 8.533333-6.4 14.933333v55.466667c0 17.066667-6.4 34.133333-19.2 44.8l-61.866667 61.866666c-12.8 12.8-29.866667 19.2-46.933333 19.2z m-164.266667-198.4l151.466667 151.466667c8.533333 8.533333 21.333333 8.533333 29.866667 0l61.866666-61.866667c4.266667-4.266667 6.4-8.533333 6.4-14.933333v-55.466667c0-17.066667 6.4-34.133333 19.2-44.8l125.866667-125.866666c12.8-12.8 27.733333-19.2 44.8-19.2h55.466667c6.4 0 10.666667-2.133333 14.933333-6.4l61.866667-61.866667c8.533333-8.533333 8.533333-21.333333 0-29.866667l-151.466667-151.466666c-8.533333-8.533333-21.333333-8.533333-29.866667 0L554.666667 288c-4.266667 4.266667-6.4 8.533333-6.4 14.933333v55.466667c0 17.066667-6.4 34.133333-19.2 44.8l-125.866667 125.866667c-12.8 12.8-27.733333 19.2-44.8 19.2h-55.466667c-6.4 0-10.666667 2.133333-14.933333 6.4l-61.866667 61.866666c-8.533333 8.533333-8.533333 23.466667 0 32z" fill="#333333" p-id="7491"></path><path d="M149.333333 896c-6.4 0-10.666667-2.133333-14.933333-6.4-8.533333-8.533333-8.533333-21.333333 0-29.866667l136.533333-136.533333c8.533333-8.533333 21.333333-8.533333 29.866667 0 8.533333 8.533333 8.533333 21.333333 0 29.866667l-136.533333 136.533333c-4.266667 4.266667-8.533333 6.4-14.933334 6.4zM738.133333 307.2c-6.4 0-10.666667-2.133333-14.933333-6.4-8.533333-8.533333-8.533333-21.333333 0-29.866667l136.533333-136.533333c8.533333-8.533333 21.333333-8.533333 29.866667 0 8.533333 8.533333 8.533333 21.333333 0 29.866667l-136.533333 136.533333c-4.266667 4.266667-8.533333 6.4-14.933334 6.4z" fill="#8a8a8a" p-id="7492"></path></svg>